%TF.GenerationSoftware,Altium Limited,Altium Designer,22.4.2 (48)*%
G04 Layer_Color=8388736*
%FSLAX45Y45*%
%MOMM*%
%TF.SameCoordinates,24D30104-F170-4498-80AD-2BAA9A99EF50*%
%TF.FilePolarity,Negative*%
%TF.FileFunction,Soldermask,Top*%
%TF.Part,Single*%
G01*
G75*
%TA.AperFunction,SMDPad,CuDef*%
%ADD14C,6.29100*%
%ADD15R,1.07000X2.16000*%
%TA.AperFunction,ComponentPad*%
%ADD20C,3.50000*%
%ADD21R,1.42000X1.42000*%
%ADD22C,1.42000*%
%TA.AperFunction,SMDPad,CuDef*%
%ADD36R,7.20320X4.20320*%
%ADD37R,1.20320X1.80320*%
%ADD38R,1.80320X1.20320*%
%ADD39R,4.20320X7.20320*%
%ADD40R,3.50320X2.60320*%
%TA.AperFunction,ComponentPad*%
%ADD41C,2.40320*%
%ADD42C,1.60320*%
G04:AMPARAMS|DCode=43|XSize=1.6032mm|YSize=1.6032mm|CornerRadius=0mm|HoleSize=0mm|Usage=FLASHONLY|Rotation=0.000|XOffset=0mm|YOffset=0mm|HoleType=Round|Shape=Octagon|*
%AMOCTAGOND43*
4,1,8,0.80160,-0.40080,0.80160,0.40080,0.40080,0.80160,-0.40080,0.80160,-0.80160,0.40080,-0.80160,-0.40080,-0.40080,-0.80160,0.40080,-0.80160,0.80160,-0.40080,0.0*
%
%ADD43OCTAGOND43*%

G04:AMPARAMS|DCode=44|XSize=1.6032mm|YSize=1.6032mm|CornerRadius=0mm|HoleSize=0mm|Usage=FLASHONLY|Rotation=90.000|XOffset=0mm|YOffset=0mm|HoleType=Round|Shape=Octagon|*
%AMOCTAGOND44*
4,1,8,0.40080,0.80160,-0.40080,0.80160,-0.80160,0.40080,-0.80160,-0.40080,-0.40080,-0.80160,0.40080,-0.80160,0.80160,-0.40080,0.80160,0.40080,0.40080,0.80160,0.0*
%
%ADD44OCTAGOND44*%

%ADD45C,2.00320*%
G04:AMPARAMS|DCode=46|XSize=2.0032mm|YSize=2.0032mm|CornerRadius=0mm|HoleSize=0mm|Usage=FLASHONLY|Rotation=0.000|XOffset=0mm|YOffset=0mm|HoleType=Round|Shape=Octagon|*
%AMOCTAGOND46*
4,1,8,1.00160,-0.50080,1.00160,0.50080,0.50080,1.00160,-0.50080,1.00160,-1.00160,0.50080,-1.00160,-0.50080,-0.50080,-1.00160,0.50080,-1.00160,1.00160,-0.50080,0.0*
%
%ADD46OCTAGOND46*%

%TA.AperFunction,ViaPad*%
%ADD47C,7.20320*%
%TA.AperFunction,ComponentPad*%
G04:AMPARAMS|DCode=48|XSize=2.0032mm|YSize=2.0032mm|CornerRadius=0mm|HoleSize=0mm|Usage=FLASHONLY|Rotation=270.000|XOffset=0mm|YOffset=0mm|HoleType=Round|Shape=Octagon|*
%AMOCTAGOND48*
4,1,8,-0.50080,-1.00160,0.50080,-1.00160,1.00160,-0.50080,1.00160,0.50080,0.50080,1.00160,-0.50080,1.00160,-1.00160,0.50080,-1.00160,-0.50080,-0.50080,-1.00160,0.0*
%
%ADD48OCTAGOND48*%

%ADD49R,2.00320X2.00320*%
%TA.AperFunction,ViaPad*%
%ADD50C,0.90320*%
G36*
X3716500Y1987000D02*
X3840000D01*
Y1796000D01*
X2760000D01*
Y1987000D01*
X2883500D01*
Y2495000D01*
X3716500D01*
Y1987000D01*
D02*
G37*
D14*
X3300000Y2145500D02*
D03*
D15*
X3640000Y3213000D02*
D03*
X3470000D02*
D03*
X3300000D02*
D03*
X3130000D02*
D03*
X2960000D02*
D03*
D20*
X8643000Y1048000D02*
D03*
X9957000D02*
D03*
X10543000D02*
D03*
X11857000D02*
D03*
D21*
X8950000Y1319000D02*
D03*
X10850000D02*
D03*
D22*
X9200000D02*
D03*
X9400000D02*
D03*
X9650000D02*
D03*
X11100000D02*
D03*
X11300000D02*
D03*
X11550000D02*
D03*
D36*
X6000000Y3000000D02*
D03*
Y4000000D02*
D03*
X1600000Y2900000D02*
D03*
Y1900000D02*
D03*
D37*
X6150000Y5200000D02*
D03*
X5850000D02*
D03*
X1500000Y3500000D02*
D03*
X1800000D02*
D03*
X8800000Y4400000D02*
D03*
X9100000D02*
D03*
D38*
X2500000Y3450000D02*
D03*
Y3150000D02*
D03*
Y2600000D02*
D03*
Y2900000D02*
D03*
D39*
X3800000Y4200000D02*
D03*
X2800000D02*
D03*
X9600000Y3500000D02*
D03*
X8600000D02*
D03*
D40*
X4600000Y4170000D02*
D03*
Y4830000D02*
D03*
D41*
X6854000Y1021000D02*
D03*
X6346000D02*
D03*
X5408000D02*
D03*
X4900000D02*
D03*
X4308000D02*
D03*
X3800000D02*
D03*
X3100000D02*
D03*
X2592000D02*
D03*
X1954000D02*
D03*
X1446000D02*
D03*
X8054000D02*
D03*
X7546000D02*
D03*
X6346000Y11000000D02*
D03*
X6854000D02*
D03*
D42*
X9100000Y5000000D02*
D03*
X10300000Y3725000D02*
D03*
X6150000Y2300000D02*
D03*
X500000Y2250000D02*
D03*
X5850000Y4700000D02*
D03*
D43*
X8850000Y5000000D02*
D03*
X5900000Y2300000D02*
D03*
X6100000Y4700000D02*
D03*
D44*
X10300000Y3475000D02*
D03*
X500000Y2000000D02*
D03*
D45*
X4100000Y11300000D02*
D03*
X9550000D02*
D03*
X1450000Y4300000D02*
D03*
X4600000Y2450000D02*
D03*
X10878000Y5728000D02*
D03*
X9862000D02*
D03*
X8846000D02*
D03*
X10624000Y10300000D02*
D03*
X9608000D02*
D03*
X4084000D02*
D03*
X5100000D02*
D03*
X3322000Y5728000D02*
D03*
X4338000D02*
D03*
X5354000D02*
D03*
D46*
X3600000Y11300000D02*
D03*
X9050000D02*
D03*
X1950000Y4300000D02*
D03*
D47*
X600000Y600000D02*
D03*
Y11400000D02*
D03*
X12700000Y600000D02*
D03*
Y11400000D02*
D03*
D48*
X4600000Y2950000D02*
D03*
D49*
X9100000Y10300000D02*
D03*
X3576000D02*
D03*
D50*
X10200000Y1600000D02*
D03*
X12000000D02*
D03*
X11600000D02*
D03*
X11200000D02*
D03*
X11500000Y1000000D02*
D03*
X11200000D02*
D03*
X11000000D02*
D03*
X2000000Y200000D02*
D03*
Y400000D02*
D03*
Y700000D02*
D03*
X3300000Y1400000D02*
D03*
X2900000D02*
D03*
Y200000D02*
D03*
X3300000D02*
D03*
Y600000D02*
D03*
X2900000D02*
D03*
X4200000Y300000D02*
D03*
X4500000D02*
D03*
Y700000D02*
D03*
X4200000D02*
D03*
X5400000D02*
D03*
X5800000D02*
D03*
Y1000000D02*
D03*
Y1300000D02*
D03*
X7200000Y700000D02*
D03*
X6900000D02*
D03*
X7200000Y1400000D02*
D03*
X6900000D02*
D03*
X8100000Y1600000D02*
D03*
Y1400000D02*
D03*
X9800000Y1600000D02*
D03*
X9400000D02*
D03*
X9600000Y1100000D02*
D03*
X10400000Y4200000D02*
D03*
X10000000D02*
D03*
X9500000Y4400000D02*
D03*
Y4700000D02*
D03*
Y5000000D02*
D03*
Y5300000D02*
D03*
X10300000Y5500000D02*
D03*
Y5800000D02*
D03*
Y6100000D02*
D03*
X9900000D02*
D03*
X9500000D02*
D03*
Y5800000D02*
D03*
Y5500000D02*
D03*
X4900000Y5100000D02*
D03*
X4400000D02*
D03*
X5500000Y4900000D02*
D03*
Y4400000D02*
D03*
X6500000Y2600000D02*
D03*
Y2300000D02*
D03*
Y2100000D02*
D03*
X5100000Y2000000D02*
D03*
X4600000D02*
D03*
X4200000D02*
D03*
X2700000Y3200000D02*
D03*
X3100000Y3700000D02*
D03*
X3300000D02*
D03*
Y2900000D02*
D03*
X2600000Y2400000D02*
D03*
X2400000D02*
D03*
X700000Y2600000D02*
D03*
X300000D02*
D03*
X500000D02*
D03*
X1000000Y3500000D02*
D03*
Y4700000D02*
D03*
Y4300000D02*
D03*
Y3900000D02*
D03*
X4700000Y5700000D02*
D03*
Y5900000D02*
D03*
X4000000D02*
D03*
Y5700000D02*
D03*
X5500000Y5200000D02*
D03*
X5700000D02*
D03*
X5500000Y4700000D02*
D03*
X4600000Y5100000D02*
D03*
X3000000Y2000000D02*
D03*
X3200000D02*
D03*
X3400000D02*
D03*
X3600000D02*
D03*
Y2300000D02*
D03*
X3400000D02*
D03*
X3200000D02*
D03*
X3000000D02*
D03*
%TF.MD5,a01ede13a86d1297eebc86ed45b60fea*%
M02*
