%TF.GenerationSoftware,Altium Limited,Altium Designer,22.4.2 (48)*%
G04 Layer_Color=65535*
%FSLAX45Y45*%
%MOMM*%
%TF.SameCoordinates,33709DFB-A149-439E-BA6C-A4EA3245395A*%
%TF.FilePolarity,Positive*%
%TF.FileFunction,Legend,Top*%
%TF.Part,Single*%
G01*
G75*
%TA.AperFunction,NonConductor*%
%ADD32C,0.20000*%
%ADD33C,0.25000*%
%ADD34C,0.10000*%
%ADD35C,0.25400*%
G36*
X820000Y2155000D02*
X180000D01*
X195000Y2227500D01*
X235000Y2307500D01*
X292500Y2370000D01*
X350000Y2407500D01*
X425000Y2435000D01*
X500000Y2445000D01*
X565000Y2437500D01*
X632500Y2417500D01*
X700000Y2375000D01*
X752500Y2322500D01*
X790000Y2257500D01*
X812500Y2192500D01*
X820000Y2155000D01*
D02*
G37*
G36*
X4110000Y2600000D02*
X5090000D01*
X5075000Y2540000D01*
X5050000Y2482500D01*
X5015000Y2420000D01*
X4980000Y2375000D01*
X4917500Y2312500D01*
X4860000Y2272500D01*
X4757500Y2222500D01*
X4665000Y2202500D01*
X4555000Y2200000D01*
X4482500Y2212500D01*
X4417500Y2232500D01*
X4337500Y2272500D01*
X4272500Y2322500D01*
X4205000Y2392500D01*
X4160000Y2465000D01*
X4115000Y2572500D01*
X4110000Y2597500D01*
Y2600000D01*
D02*
G37*
G36*
X1600000Y4790000D02*
Y3810000D01*
X1540000Y3825000D01*
X1482500Y3850000D01*
X1420000Y3885000D01*
X1375000Y3920000D01*
X1312500Y3982500D01*
X1272500Y4040000D01*
X1222500Y4142500D01*
X1202500Y4235000D01*
X1200000Y4345000D01*
X1212500Y4417500D01*
X1232500Y4482500D01*
X1272500Y4562500D01*
X1322500Y4627500D01*
X1392500Y4695000D01*
X1465000Y4740000D01*
X1572500Y4785000D01*
X1597500Y4790000D01*
X1600000D01*
D02*
G37*
G36*
X5900000Y5240000D02*
Y4260000D01*
X5840000Y4275000D01*
X5782500Y4300000D01*
X5720000Y4335000D01*
X5675000Y4370000D01*
X5612500Y4432500D01*
X5572500Y4490000D01*
X5522500Y4592500D01*
X5502500Y4685000D01*
X5500000Y4795000D01*
X5512500Y4867500D01*
X5532500Y4932500D01*
X5572500Y5012500D01*
X5622500Y5077500D01*
X5692500Y5145000D01*
X5765000Y5190000D01*
X5872500Y5235000D01*
X5897500Y5240000D01*
X5900000D01*
D02*
G37*
G36*
X3950000Y10810000D02*
Y11790000D01*
X4010000Y11775000D01*
X4067500Y11750000D01*
X4130000Y11715000D01*
X4175000Y11680000D01*
X4237500Y11617500D01*
X4277500Y11560000D01*
X4327500Y11457500D01*
X4347500Y11365000D01*
X4350000Y11255000D01*
X4337500Y11182500D01*
X4317500Y11117500D01*
X4277500Y11037500D01*
X4227500Y10972500D01*
X4157500Y10905000D01*
X4085000Y10860000D01*
X3977500Y10815000D01*
X3952500Y10810000D01*
X3950000D01*
D02*
G37*
G36*
X6030000Y1430000D02*
Y2070000D01*
X6102500Y2055000D01*
X6182500Y2015000D01*
X6245000Y1957500D01*
X6282500Y1900000D01*
X6310000Y1825000D01*
X6320000Y1750000D01*
X6312500Y1685000D01*
X6292500Y1617500D01*
X6250000Y1550000D01*
X6197500Y1497500D01*
X6132500Y1460000D01*
X6067500Y1437500D01*
X6030000Y1430000D01*
D02*
G37*
G36*
X8155000Y1680000D02*
Y2320000D01*
X8227500Y2305000D01*
X8307500Y2265000D01*
X8370000Y2207500D01*
X8407500Y2150000D01*
X8435000Y2075000D01*
X8445000Y2000000D01*
X8437500Y1935000D01*
X8417500Y1867500D01*
X8375000Y1800000D01*
X8322500Y1747500D01*
X8257500Y1710000D01*
X8192500Y1687500D01*
X8155000Y1680000D01*
D02*
G37*
G36*
X10280000D02*
Y2320000D01*
X10352500Y2305000D01*
X10432500Y2265000D01*
X10495000Y2207500D01*
X10532500Y2150000D01*
X10560000Y2075000D01*
X10570000Y2000000D01*
X10562500Y1935000D01*
X10542500Y1867500D01*
X10500000Y1800000D01*
X10447500Y1747500D01*
X10382500Y1710000D01*
X10317500Y1687500D01*
X10280000Y1680000D01*
D02*
G37*
G36*
X9100000Y4260000D02*
Y5240000D01*
X9160000Y5225000D01*
X9217500Y5200000D01*
X9280000Y5165000D01*
X9325000Y5130000D01*
X9387500Y5067500D01*
X9427500Y5010000D01*
X9477500Y4907500D01*
X9497500Y4815000D01*
X9500000Y4705000D01*
X9487500Y4632500D01*
X9467500Y4567500D01*
X9427500Y4487500D01*
X9377500Y4422500D01*
X9307500Y4355000D01*
X9235000Y4310000D01*
X9127500Y4265000D01*
X9102500Y4260000D01*
X9100000D01*
D02*
G37*
G36*
X9400000Y10810000D02*
Y11790000D01*
X9460000Y11775000D01*
X9517500Y11750000D01*
X9580000Y11715000D01*
X9625000Y11680000D01*
X9687500Y11617500D01*
X9727500Y11560000D01*
X9777500Y11457500D01*
X9797500Y11365000D01*
X9800000Y11255000D01*
X9787500Y11182500D01*
X9767500Y11117500D01*
X9727500Y11037500D01*
X9677500Y10972500D01*
X9607500Y10905000D01*
X9535000Y10860000D01*
X9427500Y10815000D01*
X9402500Y10810000D01*
X9400000D01*
D02*
G37*
D32*
X10570000Y2000000D02*
G03*
X10570000Y2000000I-320000J0D01*
G01*
X8445000D02*
G03*
X8445000Y2000000I-320000J0D01*
G01*
X6500000Y4750000D02*
G03*
X6500000Y4750000I-500000J0D01*
G01*
X9500000D02*
G03*
X9500000Y4750000I-500000J0D01*
G01*
X4350000Y11300000D02*
G03*
X4350000Y11300000I-500000J0D01*
G01*
X9800000D02*
G03*
X9800000Y11300000I-500000J0D01*
G01*
X6320000Y1750000D02*
G03*
X6320000Y1750000I-320000J0D01*
G01*
X2200000Y4300000D02*
G03*
X2200000Y4300000I-500000J0D01*
G01*
X820000Y2125000D02*
G03*
X820000Y2125000I-320000J0D01*
G01*
X5100000Y2700000D02*
G03*
X5100000Y2700000I-500000J0D01*
G01*
X10503000Y1450000D02*
X10791500D01*
X11008500D02*
X11041500D01*
X11458500D02*
X11491500D01*
X11708500D02*
X11997000D01*
Y1290500D02*
Y1450000D01*
X10503000Y1290500D02*
Y1450000D01*
X7503000D02*
X7791500D01*
X8008500D02*
X8041500D01*
X8458500D02*
X8491500D01*
X8708500D02*
X8997000D01*
Y1290500D02*
Y1450000D01*
X7503000Y1290500D02*
Y1450000D01*
X6437139Y5327182D02*
X6877139D01*
X6437139Y5127182D02*
X6877139D01*
X6437139D02*
Y5327182D01*
X6877139Y5127182D02*
Y5327182D01*
X2600000Y3080000D02*
Y3520000D01*
X2400000Y3080000D02*
Y3520000D01*
X2600000D01*
X2400000Y3080000D02*
X2600000D01*
X2779500Y2532500D02*
Y2844500D01*
X3820500D01*
Y2532500D02*
Y2844500D01*
X1430000Y3400000D02*
Y3600000D01*
X1870000Y3400000D02*
Y3600000D01*
X1430000D02*
X1870000D01*
X1430000Y3400000D02*
X1870000D01*
X7650000Y4030000D02*
Y4470000D01*
X7850000Y4030000D02*
Y4470000D01*
X7650000Y4030000D02*
X7850000D01*
X7650000Y4470000D02*
X7850000D01*
X4270000Y4350000D02*
X4930000D01*
X4800000Y4860000D02*
X4930000D01*
Y4140000D02*
Y4860000D01*
X4800000Y4140000D02*
X4930000D01*
X4270000D02*
X4400000D01*
X4270000D02*
Y4860000D01*
X4400000D01*
X2400000Y2530000D02*
X2600000D01*
X2400000Y2970000D02*
X2600000D01*
X2400000Y2530000D02*
Y2970000D01*
X2600000Y2530000D02*
Y2970000D01*
X11894000Y5474000D02*
Y10554000D01*
X6814000D02*
X11894000D01*
X6814000Y5474000D02*
Y10554000D01*
Y5474000D02*
X11894000D01*
X1290000D02*
X6370000D01*
X1290000D02*
Y10554000D01*
X6370000D01*
Y5474000D02*
Y10554000D01*
D33*
X10912500Y1509000D02*
G03*
X10912500Y1509000I-12500J0D01*
G01*
X7912500D02*
G03*
X7912500Y1509000I-12500J0D01*
G01*
X3653000Y3382500D02*
G03*
X3653000Y3382500I-12500J0D01*
G01*
D34*
X9100000Y10615000D02*
G03*
X9100000Y10605000I0J-5000D01*
G01*
D02*
G03*
X9100000Y10615000I0J5000D01*
G01*
X3576000Y10605000D02*
G03*
X3576000Y10615000I0J5000D01*
G01*
D02*
G03*
X3576000Y10605000I0J-5000D01*
G01*
X9620000Y3870000D02*
X9870000D01*
X9620000Y2610000D02*
X9870000D01*
X10630000Y3870000D02*
X10890000D01*
X10630000Y2610000D02*
X10890000D01*
Y3870000D01*
X9620000Y2610000D02*
Y3870000D01*
X5370000Y2860000D02*
Y4120000D01*
X6640000Y2860000D02*
Y4120000D01*
X6380000Y2860000D02*
X6640000D01*
X6380000Y4120000D02*
X6640000D01*
X5370000Y2860000D02*
X5620000D01*
X5370000Y4120000D02*
X5620000D01*
X3920000Y4580000D02*
Y4830000D01*
X2660000Y4580000D02*
Y4830000D01*
X3920000Y3560000D02*
Y3820000D01*
X2660000Y3560000D02*
Y3820000D01*
Y3560000D02*
X3920000D01*
X2660000Y4830000D02*
X3920000D01*
X970000Y3020000D02*
X1220000D01*
X970000Y1760000D02*
X1220000D01*
X1980000Y3020000D02*
X2240000D01*
X1980000Y1760000D02*
X2240000D01*
Y3020000D01*
X970000Y1760000D02*
Y3020000D01*
X7370000Y2610000D02*
Y3870000D01*
X8640000Y2610000D02*
Y3870000D01*
X8380000Y2610000D02*
X8640000D01*
X8380000Y3870000D02*
X8640000D01*
X7370000Y2610000D02*
X7620000D01*
X7370000Y3870000D02*
X7620000D01*
D35*
X9474608Y2300784D02*
X9449217Y2326175D01*
X9398433D01*
X9373041Y2300784D01*
Y2199217D01*
X9398433Y2173825D01*
X9449217D01*
X9474608Y2199217D01*
X9525392D02*
X9550784Y2173825D01*
X9601567D01*
X9626959Y2199217D01*
Y2300784D01*
X9601567Y2326175D01*
X9550784D01*
X9525392Y2300784D01*
Y2275392D01*
X9550784Y2250000D01*
X9626959D01*
X7474608Y2300784D02*
X7449216Y2326175D01*
X7398433D01*
X7373041Y2300784D01*
Y2199217D01*
X7398433Y2173825D01*
X7449216D01*
X7474608Y2199217D01*
X7626959Y2326175D02*
X7525392D01*
Y2250000D01*
X7576175Y2275392D01*
X7601567D01*
X7626959Y2250000D01*
Y2199217D01*
X7601567Y2173825D01*
X7550784D01*
X7525392Y2199217D01*
X9265920Y1509391D02*
X9367487Y1357040D01*
Y1509391D02*
X9265920Y1357040D01*
X9418271Y1509391D02*
X9519838D01*
Y1483999D01*
X9418271Y1382432D01*
Y1357040D01*
X9634220Y4188411D02*
Y4036060D01*
X9735787D01*
X9862746D02*
Y4188411D01*
X9786571Y4112235D01*
X9888138D01*
X5603207Y5478739D02*
X5577815Y5504131D01*
X5527032D01*
X5501640Y5478739D01*
Y5377172D01*
X5527032Y5351780D01*
X5577815D01*
X5603207Y5377172D01*
X5653991Y5351780D02*
X5704774D01*
X5679383D01*
Y5504131D01*
X5653991Y5478739D01*
X5780950Y5351780D02*
X5831733D01*
X5806341D01*
Y5504131D01*
X5780950Y5478739D01*
X3573041Y1476175D02*
X3674609Y1323825D01*
Y1476175D02*
X3573041Y1323825D01*
X3725392Y1450783D02*
X3750784Y1476175D01*
X3801567D01*
X3826959Y1450783D01*
Y1425392D01*
X3801567Y1400000D01*
X3826959Y1374608D01*
Y1349217D01*
X3801567Y1323825D01*
X3750784D01*
X3725392Y1349217D01*
Y1374608D01*
X3750784Y1400000D01*
X3725392Y1425392D01*
Y1450783D01*
X3750784Y1400000D02*
X3801567D01*
X10424160Y1762711D02*
X10525727Y1610360D01*
Y1762711D02*
X10424160Y1610360D01*
X10652686D02*
Y1762711D01*
X10576511Y1686535D01*
X10678078D01*
X7424420Y1762711D02*
X7525987Y1610360D01*
Y1762711D02*
X7424420Y1610360D01*
X7576771Y1737319D02*
X7602163Y1762711D01*
X7652946D01*
X7678338Y1737319D01*
Y1711927D01*
X7652946Y1686535D01*
X7627554D01*
X7652946D01*
X7678338Y1661143D01*
Y1635752D01*
X7652946Y1610360D01*
X7602163D01*
X7576771Y1635752D01*
X984360Y3337771D02*
Y3185420D01*
X1085927D01*
X1238278D02*
X1136711D01*
X1238278Y3286987D01*
Y3312379D01*
X1212886Y3337771D01*
X1162103D01*
X1136711Y3312379D01*
X2615040Y5067511D02*
Y4915160D01*
X2716607D01*
X2767391D02*
X2818174D01*
X2792783D01*
Y5067511D01*
X2767391Y5042119D01*
X2764900Y3634951D02*
Y3507992D01*
X2790292Y3482600D01*
X2841076D01*
X2866467Y3507992D01*
Y3634951D01*
X2917251Y3482600D02*
X2968034D01*
X2942643D01*
Y3634951D01*
X2917251Y3609559D01*
X2414380Y3055880D02*
Y3208231D01*
X2490556D01*
X2515947Y3182839D01*
Y3132055D01*
X2490556Y3106664D01*
X2414380D01*
X2465164D02*
X2515947Y3055880D01*
X2566731D02*
X2617514D01*
X2592123D01*
Y3208231D01*
X2566731Y3182839D01*
X6263640Y1509391D02*
X6365207Y1357040D01*
Y1509391D02*
X6263640Y1357040D01*
X6517558Y1509391D02*
X6466774Y1483999D01*
X6415991Y1433215D01*
Y1382432D01*
X6441383Y1357040D01*
X6492166D01*
X6517558Y1382432D01*
Y1407823D01*
X6492166Y1433215D01*
X6415991D01*
X6111160Y12249291D02*
X6212727Y12096940D01*
Y12249291D02*
X6111160Y12096940D01*
X6263511Y12122332D02*
X6288903Y12096940D01*
X6339686D01*
X6365078Y12122332D01*
Y12223899D01*
X6339686Y12249291D01*
X6288903D01*
X6263511Y12223899D01*
Y12198507D01*
X6288903Y12173115D01*
X6365078D01*
X5073041Y4076175D02*
Y3923825D01*
X5174608D01*
X5326959Y4076175D02*
X5225392D01*
Y4000000D01*
X5276175Y4025392D01*
X5301567D01*
X5326959Y4000000D01*
Y3949217D01*
X5301567Y3923825D01*
X5250784D01*
X5225392Y3949217D01*
X8076176Y4276959D02*
X7923825D01*
Y4175392D01*
X8050784Y4124608D02*
X8076176Y4099216D01*
Y4048433D01*
X8050784Y4023041D01*
X8025392D01*
X8000000Y4048433D01*
Y4073825D01*
Y4048433D01*
X7974608Y4023041D01*
X7949217D01*
X7923825Y4048433D01*
Y4099216D01*
X7949217Y4124608D01*
X1210040Y10888451D02*
Y10736100D01*
X1286216D01*
X1311607Y10761492D01*
Y10863059D01*
X1286216Y10888451D01*
X1210040D01*
X1362391Y10736100D02*
Y10837667D01*
X1413174Y10888451D01*
X1463958Y10837667D01*
Y10736100D01*
Y10812275D01*
X1362391D01*
X1616309Y10736100D02*
X1514742D01*
X1616309Y10837667D01*
Y10863059D01*
X1590917Y10888451D01*
X1540134D01*
X1514742Y10863059D01*
X6734480Y10886611D02*
Y10734260D01*
X6810655D01*
X6836047Y10759652D01*
Y10861219D01*
X6810655Y10886611D01*
X6734480D01*
X6886831Y10734260D02*
Y10835827D01*
X6937614Y10886611D01*
X6988398Y10835827D01*
Y10734260D01*
Y10810435D01*
X6886831D01*
X7039182Y10734260D02*
X7089965D01*
X7064573D01*
Y10886611D01*
X7039182Y10861219D01*
X6486129Y2000784D02*
X6460737Y2026176D01*
X6409954D01*
X6384562Y2000784D01*
Y1899217D01*
X6409954Y1873825D01*
X6460737D01*
X6486129Y1899217D01*
X6536913Y1873825D02*
X6587696D01*
X6562304D01*
Y2026176D01*
X6536913Y2000784D01*
X6765439Y1873825D02*
X6663871D01*
X6765439Y1975392D01*
Y2000784D01*
X6740047Y2026176D01*
X6689263D01*
X6663871Y2000784D01*
X8411129Y11750783D02*
X8385737Y11776175D01*
X8334954D01*
X8309562Y11750783D01*
Y11649216D01*
X8334954Y11623825D01*
X8385737D01*
X8411129Y11649216D01*
X8461912Y11623825D02*
X8512696D01*
X8487304D01*
Y11776175D01*
X8461912Y11750783D01*
X8588871D02*
X8614263Y11776175D01*
X8665047D01*
X8690439Y11750783D01*
Y11649216D01*
X8665047Y11623825D01*
X8614263D01*
X8588871Y11649216D01*
Y11750783D01*
X6146011Y5176399D02*
X6171402Y5151007D01*
X6222186D01*
X6247578Y5176399D01*
Y5277966D01*
X6222186Y5303357D01*
X6171402D01*
X6146011Y5277966D01*
X6095227Y5303357D02*
X6044444D01*
X6069835D01*
Y5151007D01*
X6095227Y5176399D01*
X5968268D02*
X5942876Y5151007D01*
X5892093D01*
X5866701Y5176399D01*
Y5201790D01*
X5892093Y5227182D01*
X5917485D01*
X5892093D01*
X5866701Y5252574D01*
Y5277966D01*
X5892093Y5303357D01*
X5942876D01*
X5968268Y5277966D01*
X7699216Y3774608D02*
X7673824Y3749216D01*
Y3698433D01*
X7699216Y3673041D01*
X7800783D01*
X7826175Y3698433D01*
Y3749216D01*
X7800783Y3774608D01*
X7699216Y3825391D02*
X7673824Y3850783D01*
Y3901567D01*
X7699216Y3926959D01*
X7724608D01*
X7750000Y3901567D01*
X7775392Y3926959D01*
X7800783D01*
X7826175Y3901567D01*
Y3850783D01*
X7800783Y3825391D01*
X7775392D01*
X7750000Y3850783D01*
X7724608Y3825391D01*
X7699216D01*
X7750000Y3850783D02*
Y3901567D01*
X8374608Y5000783D02*
X8349216Y5026175D01*
X8298433D01*
X8273041Y5000783D01*
Y4899217D01*
X8298433Y4873825D01*
X8349216D01*
X8374608Y4899217D01*
X8425392Y5026175D02*
X8526959D01*
Y5000783D01*
X8425392Y4899217D01*
Y4873825D01*
X3124608Y11850784D02*
X3099217Y11876175D01*
X3048433D01*
X3023041Y11850784D01*
Y11749217D01*
X3048433Y11723825D01*
X3099217D01*
X3124608Y11749217D01*
X3276959Y11876175D02*
X3226175Y11850784D01*
X3175392Y11800000D01*
Y11749217D01*
X3200784Y11723825D01*
X3251567D01*
X3276959Y11749217D01*
Y11774608D01*
X3251567Y11800000D01*
X3175392D01*
X4202507Y3429219D02*
X4177116Y3454611D01*
X4126332D01*
X4100940Y3429219D01*
Y3327652D01*
X4126332Y3302260D01*
X4177116D01*
X4202507Y3327652D01*
X4329466Y3302260D02*
Y3454611D01*
X4253291Y3378435D01*
X4354858D01*
X2025392Y4949216D02*
X2050784Y4923824D01*
X2101567D01*
X2126959Y4949216D01*
Y5050783D01*
X2101567Y5076175D01*
X2050784D01*
X2025392Y5050783D01*
X1873041Y5076175D02*
X1974608D01*
X1873041Y4974608D01*
Y4949216D01*
X1898433Y4923824D01*
X1949216D01*
X1974608Y4949216D01*
X1000000Y2074216D02*
X1025392Y2048824D01*
X1076175D01*
X1101567Y2074216D01*
Y2175783D01*
X1076175Y2201175D01*
X1025392D01*
X1000000Y2175783D01*
X949217Y2201175D02*
X898433D01*
X923825D01*
Y2048824D01*
X949217Y2074216D01*
X1224608Y3550784D02*
X1199217Y3576175D01*
X1148433D01*
X1123041Y3550784D01*
Y3449217D01*
X1148433Y3423825D01*
X1199217D01*
X1224608Y3449217D01*
X1275392Y3550784D02*
X1300784Y3576175D01*
X1351567D01*
X1376959Y3550784D01*
Y3525392D01*
X1351567Y3500000D01*
X1326175D01*
X1351567D01*
X1376959Y3474608D01*
Y3449217D01*
X1351567Y3423825D01*
X1300784D01*
X1275392Y3449217D01*
X4284980Y5189171D02*
Y5087603D01*
X4335763Y5036820D01*
X4386547Y5087603D01*
Y5189171D01*
X4437331D02*
Y5036820D01*
X4513506D01*
X4538898Y5062212D01*
Y5163779D01*
X4513506Y5189171D01*
X4437331D01*
X4589681Y5036820D02*
X4640465D01*
X4615073D01*
Y5189171D01*
X4589681Y5163779D01*
X4673041Y1476175D02*
X4774608Y1323825D01*
Y1476175D02*
X4673041Y1323825D01*
X4926959Y1476175D02*
X4825392D01*
Y1400000D01*
X4876175Y1425392D01*
X4901567D01*
X4926959Y1400000D01*
Y1349217D01*
X4901567Y1323825D01*
X4850784D01*
X4825392Y1349217D01*
X1232735Y1481196D02*
X1334302Y1328845D01*
Y1481196D02*
X1232735Y1328845D01*
X1385086D02*
X1435869D01*
X1410477D01*
Y1481196D01*
X1385086Y1455804D01*
X2365041Y1476175D02*
X2466608Y1323825D01*
Y1476175D02*
X2365041Y1323825D01*
X2618959D02*
X2517392D01*
X2618959Y1425392D01*
Y1450783D01*
X2593567Y1476175D01*
X2542784D01*
X2517392Y1450783D01*
X2726959Y3776175D02*
Y3623825D01*
X2650784D01*
X2625392Y3649216D01*
Y3700000D01*
X2650784Y3725392D01*
X2726959D01*
X2676176D02*
X2625392Y3776175D01*
X2473041D02*
X2574609D01*
X2473041Y3674608D01*
Y3649216D01*
X2498433Y3623825D01*
X2549217D01*
X2574609Y3649216D01*
%TF.MD5,a9df679bc704f5122b869a4fab7a784b*%
M02*
