%TF.GenerationSoftware,Altium Limited,Altium Designer,22.4.2 (48)*%
G04 Layer_Color=0*
%FSLAX45Y45*%
%MOMM*%
%TF.SameCoordinates,33709DFB-A149-439E-BA6C-A4EA3245395A*%
%TF.FilePolarity,Positive*%
%TF.FileFunction,Plated,1,2,PTH,Drill*%
%TF.Part,Single*%
G01*
G75*
%TA.AperFunction,ComponentDrill*%
%ADD52C,0.80000*%
%ADD53C,1.50000*%
%ADD54C,1.00000*%
%ADD55C,2.30000*%
%ADD56C,0.92000*%
%TA.AperFunction,OtherDrill,Pad Free-2 (6mm,6mm)*%
%ADD57C,4.20000*%
%TA.AperFunction,ComponentDrill*%
%ADD58C,0.80000*%
%ADD59C,1.00000*%
%ADD60C,1.20000*%
%TA.AperFunction,OtherDrill,Pad Free-2 (6mm,114mm)*%
%ADD61C,4.20000*%
%TA.AperFunction,OtherDrill,Pad Free-2 (127mm,6mm)*%
%ADD62C,4.20000*%
%TA.AperFunction,OtherDrill,Pad Free-2 (127mm,114mm)*%
%ADD63C,4.20000*%
%TA.AperFunction,ViaDrill,NotFilled*%
%ADD64C,0.70000*%
D52*
X10125000Y2000000D02*
D03*
X10375000D02*
D03*
X8000000D02*
D03*
X8250000D02*
D03*
X6125000Y1750000D02*
D03*
X5875000D02*
D03*
D53*
X10008000Y1021000D02*
D03*
X9500000D02*
D03*
X5408000D02*
D03*
X4900000D02*
D03*
X4308000D02*
D03*
X3800000D02*
D03*
X3100000D02*
D03*
X2592000D02*
D03*
X1954000D02*
D03*
X1446000D02*
D03*
X7004000D02*
D03*
X6496000D02*
D03*
X6346000Y11000000D02*
D03*
X6854000D02*
D03*
D54*
X6250000Y4750000D02*
D03*
X5750000D02*
D03*
X8750000D02*
D03*
X9250000D02*
D03*
X4100000Y11300000D02*
D03*
X3600000D02*
D03*
X9550000D02*
D03*
X9050000D02*
D03*
X1950000Y4300000D02*
D03*
X1450000D02*
D03*
D55*
X10593000Y1078000D02*
D03*
X11907000D02*
D03*
X7593000D02*
D03*
X8907000D02*
D03*
D56*
X10900000Y1349000D02*
D03*
X11150000D02*
D03*
X11350000D02*
D03*
X11600000D02*
D03*
X7900000D02*
D03*
X8150000D02*
D03*
X8350000D02*
D03*
X8600000D02*
D03*
D57*
X600000Y600000D02*
D03*
D58*
X500000Y2000000D02*
D03*
Y2250000D02*
D03*
D59*
X4600000Y2950000D02*
D03*
Y2450000D02*
D03*
D60*
X10878000Y5728000D02*
D03*
X9862000D02*
D03*
X8846000D02*
D03*
X10624000Y10300000D02*
D03*
X9608000D02*
D03*
X9100000D02*
D03*
X3576000D02*
D03*
X4084000D02*
D03*
X5100000D02*
D03*
X3322000Y5728000D02*
D03*
X4338000D02*
D03*
X5354000D02*
D03*
D61*
X600000Y11400000D02*
D03*
D62*
X12700000Y600000D02*
D03*
D63*
Y11400000D02*
D03*
D64*
X3192596Y3986251D02*
D03*
X3188476Y3560543D02*
D03*
X5000000Y2000000D02*
D03*
X4500000D02*
D03*
X4000000D02*
D03*
X7500000Y500000D02*
D03*
X8000000D02*
D03*
X5500000D02*
D03*
X500000Y5000000D02*
D03*
X1000000D02*
D03*
Y3500000D02*
D03*
Y4000000D02*
D03*
Y4500000D02*
D03*
X4500000Y5250000D02*
D03*
X4000000D02*
D03*
X1750000Y2250000D02*
D03*
X2500000D02*
D03*
X750000Y2750000D02*
D03*
X250000D02*
D03*
X2500000Y250000D02*
D03*
X3000000D02*
D03*
X1500000D02*
D03*
X2000000D02*
D03*
Y500000D02*
D03*
X4250000D02*
D03*
X3000000D02*
D03*
Y1500000D02*
D03*
Y2000000D02*
D03*
X3500000D02*
D03*
Y2250000D02*
D03*
X3000000D02*
D03*
X9250000Y6250000D02*
D03*
Y5750000D02*
D03*
X10250000D02*
D03*
Y6250000D02*
D03*
X9750000D02*
D03*
X5250000Y2500000D02*
D03*
X7000000Y500000D02*
D03*
X10000000Y5000000D02*
D03*
X500000Y3500000D02*
D03*
X10000000Y4500000D02*
D03*
X500000Y4000000D02*
D03*
X12000000Y1750000D02*
D03*
X11500000D02*
D03*
X250000Y3000000D02*
D03*
X8750000Y2250000D02*
D03*
X750000Y3000000D02*
D03*
X9500000Y500000D02*
D03*
X8750000Y2000000D02*
D03*
X5250000Y4750000D02*
D03*
X10000000Y750000D02*
D03*
X6250000Y2500000D02*
D03*
Y2250000D02*
D03*
X10000000Y500000D02*
D03*
X5250000Y2250000D02*
D03*
Y4250000D02*
D03*
Y5250000D02*
D03*
X11250000Y500000D02*
D03*
X8500000Y1000000D02*
D03*
X10250000Y1250000D02*
D03*
X10500000Y1500000D02*
D03*
X8500000Y500000D02*
D03*
X8750000Y1750000D02*
D03*
X6500000Y500000D02*
D03*
X10750000D02*
D03*
X9000000D02*
D03*
X11750000D02*
D03*
X500000Y4500000D02*
D03*
%TF.MD5,1a6f7ac0e0a7a7877eb2ff42475a393d*%
M02*
