%TF.GenerationSoftware,Altium Limited,Altium Designer,22.4.2 (48)*%
G04 Layer_Physical_Order=1*
G04 Layer_Color=255*
%FSLAX45Y45*%
%MOMM*%
%TF.SameCoordinates,33709DFB-A149-439E-BA6C-A4EA3245395A*%
%TF.FilePolarity,Positive*%
%TF.FileFunction,Copper,L1,Top,Signal*%
%TF.Part,Single*%
G01*
G75*
%TA.AperFunction,SMDPad,CuDef*%
%ADD10R,7.00000X4.00000*%
%ADD11R,1.00000X1.60000*%
%ADD12R,1.60000X1.00000*%
%ADD13R,4.00000X7.00000*%
%ADD14C,6.29100*%
%ADD15R,1.07000X2.16000*%
%ADD16R,3.30000X2.40000*%
%TA.AperFunction,Conductor*%
%ADD17C,3.00000*%
%ADD18C,1.00000*%
%TA.AperFunction,ComponentPad*%
G04:AMPARAMS|DCode=19|XSize=1.4mm|YSize=1.4mm|CornerRadius=0mm|HoleSize=0mm|Usage=FLASHONLY|Rotation=0.000|XOffset=0mm|YOffset=0mm|HoleType=Round|Shape=Octagon|*
%AMOCTAGOND19*
4,1,8,0.70000,-0.35000,0.70000,0.35000,0.35000,0.70000,-0.35000,0.70000,-0.70000,0.35000,-0.70000,-0.35000,-0.35000,-0.70000,0.35000,-0.70000,0.70000,-0.35000,0.0*
%
%ADD19OCTAGOND19*%

%ADD20C,1.40000*%
%ADD21C,2.20000*%
G04:AMPARAMS|DCode=22|XSize=1.8mm|YSize=1.8mm|CornerRadius=0mm|HoleSize=0mm|Usage=FLASHONLY|Rotation=180.000|XOffset=0mm|YOffset=0mm|HoleType=Round|Shape=Octagon|*
%AMOCTAGOND22*
4,1,8,-0.90000,0.45000,-0.90000,-0.45000,-0.45000,-0.90000,0.45000,-0.90000,0.90000,-0.45000,0.90000,0.45000,0.45000,0.90000,-0.45000,0.90000,-0.90000,0.45000,0.0*
%
%ADD22OCTAGOND22*%

%ADD23C,1.80000*%
%ADD24C,3.50000*%
%ADD25R,1.42000X1.42000*%
%ADD26C,1.42000*%
%TA.AperFunction,ViaPad*%
%ADD27C,7.00000*%
%TA.AperFunction,ComponentPad*%
G04:AMPARAMS|DCode=28|XSize=1.4mm|YSize=1.4mm|CornerRadius=0mm|HoleSize=0mm|Usage=FLASHONLY|Rotation=90.000|XOffset=0mm|YOffset=0mm|HoleType=Round|Shape=Octagon|*
%AMOCTAGOND28*
4,1,8,0.35000,0.70000,-0.35000,0.70000,-0.70000,0.35000,-0.70000,-0.35000,-0.35000,-0.70000,0.35000,-0.70000,0.70000,-0.35000,0.70000,0.35000,0.35000,0.70000,0.0*
%
%ADD28OCTAGOND28*%

G04:AMPARAMS|DCode=29|XSize=1.8mm|YSize=1.8mm|CornerRadius=0mm|HoleSize=0mm|Usage=FLASHONLY|Rotation=270.000|XOffset=0mm|YOffset=0mm|HoleType=Round|Shape=Octagon|*
%AMOCTAGOND29*
4,1,8,-0.45000,-0.90000,0.45000,-0.90000,0.90000,-0.45000,0.90000,0.45000,0.45000,0.90000,-0.45000,0.90000,-0.90000,0.45000,-0.90000,-0.45000,-0.45000,-0.90000,0.0*
%
%ADD29OCTAGOND29*%

%ADD30R,1.80000X1.80000*%
%TA.AperFunction,ViaPad*%
%ADD31C,1.40000*%
G36*
X9300000Y10000000D02*
X6550000D01*
Y11500000D01*
X3800000D01*
Y10000000D01*
X3300000D01*
Y11500000D01*
Y11900000D01*
X9300000D01*
Y10000000D01*
D02*
G37*
G36*
X9800000Y9200000D02*
X3900000D01*
Y11450000D01*
X6500000D01*
Y9950000D01*
X9350000D01*
Y11900000D01*
X9800000D01*
Y9200000D01*
D02*
G37*
G36*
X13200000Y100000D02*
X100000D01*
Y11900000D01*
X3269412D01*
Y11500000D01*
Y10000000D01*
X3271741Y9988295D01*
X3278371Y9978371D01*
X3288295Y9971741D01*
X3300000Y9969412D01*
X3800000D01*
X3811705Y9971741D01*
X3821629Y9978371D01*
X3828259Y9988295D01*
X3830588Y10000000D01*
Y11469412D01*
X3862779D01*
X3870748Y11456712D01*
X3869412Y11450000D01*
Y9200000D01*
X3871741Y9188295D01*
X3878371Y9178371D01*
X3888295Y9171741D01*
X3900000Y9169412D01*
X9800000D01*
X9811705Y9171741D01*
X9821629Y9178371D01*
X9828259Y9188295D01*
X9830588Y9200000D01*
Y11900000D01*
X13200000D01*
Y100000D01*
D02*
G37*
%LPC*%
G36*
X5115799Y10420000D02*
X5084202D01*
X5053682Y10411822D01*
X5026319Y10396024D01*
X5003977Y10373682D01*
X4988178Y10346318D01*
X4980000Y10315798D01*
Y10284202D01*
X4988178Y10253682D01*
X5003977Y10226318D01*
X5026319Y10203976D01*
X5053682Y10188178D01*
X5084202Y10180000D01*
X5115799D01*
X5146318Y10188178D01*
X5173682Y10203976D01*
X5196024Y10226318D01*
X5211822Y10253682D01*
X5220000Y10284202D01*
Y10315798D01*
X5211822Y10346318D01*
X5196024Y10373682D01*
X5173682Y10396024D01*
X5146318Y10411822D01*
X5115799Y10420000D01*
D02*
G37*
G36*
X10639798D02*
X10608202D01*
X10577682Y10411822D01*
X10550318Y10396024D01*
X10527976Y10373682D01*
X10512178Y10346318D01*
X10504000Y10315798D01*
Y10284202D01*
X10512178Y10253682D01*
X10527976Y10226318D01*
X10550318Y10203976D01*
X10577682Y10188178D01*
X10608202Y10180000D01*
X10639798D01*
X10670318Y10188178D01*
X10697682Y10203976D01*
X10720024Y10226318D01*
X10735822Y10253682D01*
X10744000Y10284202D01*
Y10315798D01*
X10735822Y10346318D01*
X10720024Y10373682D01*
X10697682Y10396024D01*
X10670318Y10411822D01*
X10639798Y10420000D01*
D02*
G37*
G36*
X10893798Y5848000D02*
X10862202D01*
X10831682Y5839822D01*
X10804318Y5824024D01*
X10781976Y5801682D01*
X10766178Y5774318D01*
X10758000Y5743798D01*
Y5712202D01*
X10766178Y5681682D01*
X10781976Y5654318D01*
X10804318Y5631976D01*
X10831682Y5616178D01*
X10862202Y5608000D01*
X10893798D01*
X10924318Y5616178D01*
X10951682Y5631976D01*
X10974024Y5654318D01*
X10989822Y5681682D01*
X10998000Y5712202D01*
Y5743798D01*
X10989822Y5774318D01*
X10974024Y5801682D01*
X10951682Y5824024D01*
X10924318Y5839822D01*
X10893798Y5848000D01*
D02*
G37*
G36*
X5369799D02*
X5338202D01*
X5307682Y5839822D01*
X5280319Y5824024D01*
X5257977Y5801682D01*
X5242178Y5774318D01*
X5234000Y5743798D01*
Y5712202D01*
X5242178Y5681682D01*
X5257977Y5654318D01*
X5280319Y5631976D01*
X5307682Y5616178D01*
X5338202Y5608000D01*
X5369799D01*
X5400318Y5616178D01*
X5427682Y5631976D01*
X5450024Y5654318D01*
X5465822Y5681682D01*
X5474000Y5712202D01*
Y5743798D01*
X5465822Y5774318D01*
X5450024Y5801682D01*
X5427682Y5824024D01*
X5400318Y5839822D01*
X5369799Y5848000D01*
D02*
G37*
G36*
X6600000Y7130588D02*
X2900000D01*
X2888295Y7128259D01*
X2878371Y7121629D01*
X2871741Y7111705D01*
X2869412Y7100000D01*
Y6644321D01*
X2869021Y6644060D01*
X2862391Y6634137D01*
X2860063Y6622432D01*
Y5422432D01*
X2862391Y5410726D01*
X2869021Y5400803D01*
X2878945Y5394172D01*
X2890650Y5391844D01*
X3690650Y5391844D01*
X3702355Y5394172D01*
X3712279Y5400803D01*
X3718909Y5410726D01*
X3721238Y5422431D01*
Y5969412D01*
X5969412D01*
Y4230000D01*
X5620000D01*
Y3770000D01*
X5997044D01*
X6000000Y3769412D01*
X6600000D01*
X6611705Y3771741D01*
X6621629Y3778371D01*
X6628259Y3788295D01*
X6630588Y3800000D01*
Y7000000D01*
Y7100000D01*
X6628259Y7111705D01*
X6621629Y7121629D01*
X6611705Y7128259D01*
X6600000Y7130588D01*
D02*
G37*
G36*
X9000000Y6030588D02*
X8250000D01*
X8238295Y6028259D01*
X8228371Y6021629D01*
X8221741Y6011705D01*
X8219412Y6000000D01*
Y4280588D01*
X7500000D01*
X7488295Y4278259D01*
X7478371Y4271629D01*
X7471741Y4261705D01*
X7469412Y4250000D01*
Y3250000D01*
X7471741Y3238295D01*
X7478371Y3228371D01*
X7488295Y3221741D01*
X7500000Y3219412D01*
X10750000D01*
X10761705Y3221741D01*
X10771629Y3228371D01*
X10778259Y3238295D01*
X10780588Y3250000D01*
Y4250000D01*
X10778259Y4261705D01*
X10771629Y4271629D01*
X10761705Y4278259D01*
X10750000Y4280588D01*
X9030588D01*
Y6000000D01*
X9028259Y6011705D01*
X9021629Y6021629D01*
X9011705Y6028259D01*
X9000000Y6030588D01*
D02*
G37*
G36*
X3213500Y3351000D02*
X3046500D01*
Y3075000D01*
X3049310D01*
Y2992002D01*
X3037999Y2980690D01*
X2630588D01*
Y3300000D01*
X2628259Y3311705D01*
X2621629Y3321629D01*
X2611705Y3328259D01*
X2600000Y3330588D01*
X2400000D01*
X2388295Y3328259D01*
X2378371Y3321629D01*
X2371741Y3311705D01*
X2369412Y3300000D01*
Y2800000D01*
X2371741Y2788295D01*
X2378371Y2778371D01*
X2388295Y2771741D01*
X2400000Y2769412D01*
X2600000D01*
X2611705Y2771741D01*
X2621629Y2778371D01*
X2628259Y2788295D01*
X2630588Y2800000D01*
Y2819310D01*
X3071422D01*
X3092306Y2822059D01*
X3111767Y2830120D01*
X3128478Y2842944D01*
X3187057Y2901522D01*
X3199880Y2918234D01*
X3207941Y2937695D01*
X3210691Y2958579D01*
Y3075000D01*
X3213500D01*
Y3351000D01*
D02*
G37*
G36*
X3000000Y4730588D02*
X1700000D01*
X1688295Y4728259D01*
X1678371Y4721629D01*
X1671741Y4711705D01*
X1669412Y4700000D01*
Y3400000D01*
Y3130000D01*
X1220000D01*
Y2670000D01*
X1669412D01*
Y2600000D01*
X1671741Y2588295D01*
X1678371Y2578371D01*
X1688295Y2571741D01*
X1700000Y2569412D01*
X2300000D01*
X2311705Y2571741D01*
X2321629Y2578371D01*
X2328259Y2588295D01*
X2330588Y2600000D01*
Y3369412D01*
X3000000D01*
X3011705Y3371741D01*
X3021629Y3378371D01*
X3028259Y3388295D01*
X3030588Y3400000D01*
Y4700000D01*
X3028259Y4711705D01*
X3021629Y4721629D01*
X3011705Y4728259D01*
X3000000Y4730588D01*
D02*
G37*
G36*
X5000000Y4630588D02*
X3400000D01*
X3388295Y4628259D01*
X3378371Y4621629D01*
X3371741Y4611705D01*
X3369412Y4600000D01*
Y3500000D01*
X3371741Y3488295D01*
X3378371Y3478371D01*
X3388295Y3471741D01*
X3389310Y3471539D01*
Y3351000D01*
X3386500D01*
Y3075000D01*
X3543800D01*
X3553500Y3075000D01*
X3560432D01*
X3569412Y3066020D01*
Y2800000D01*
X3571741Y2788295D01*
X3578371Y2778371D01*
X3588295Y2771741D01*
X3600000Y2769412D01*
X5469412D01*
X5469412Y1930588D01*
X4300001D01*
X4300000Y1930588D01*
X4288295Y1928259D01*
X4278371Y1921629D01*
X4087330Y1730587D01*
X3500000Y1730588D01*
X3488295Y1728259D01*
X3478371Y1721629D01*
X3471741Y1711705D01*
X3469412Y1700000D01*
X3469412Y1200000D01*
Y300000D01*
X3471741Y288295D01*
X3478371Y278371D01*
X3488295Y271741D01*
X3500000Y269412D01*
X4100000D01*
X4111705Y271741D01*
X4121629Y278371D01*
X4128259Y288295D01*
X4130588Y300000D01*
Y1169412D01*
X4569412D01*
Y300000D01*
X4571741Y288295D01*
X4578371Y278371D01*
X4588295Y271741D01*
X4600000Y269412D01*
X5200000D01*
X5211705Y271741D01*
X5221629Y278371D01*
X5228259Y288295D01*
X5230588Y300000D01*
Y1200000D01*
Y1369412D01*
X6000000D01*
X6011705Y1371741D01*
X6021629Y1378371D01*
X6028259Y1388295D01*
X6030588Y1400000D01*
X6030587Y2769412D01*
X6400000D01*
X6411705Y2771741D01*
X6421629Y2778371D01*
X6428259Y2788295D01*
X6430588Y2800000D01*
Y3400000D01*
X6428259Y3411705D01*
X6421629Y3421629D01*
X6411705Y3428259D01*
X6400000Y3430588D01*
X3600000D01*
X3588295Y3428259D01*
X3578371Y3421629D01*
X3571741Y3411705D01*
X3569412Y3400000D01*
Y3359980D01*
X3567241Y3357809D01*
X3551443Y3359960D01*
X3550690Y3361294D01*
Y3469412D01*
X5000000D01*
X5011705Y3471741D01*
X5021629Y3478371D01*
X5028259Y3488295D01*
X5030588Y3500000D01*
Y4600000D01*
X5028259Y4611705D01*
X5021629Y4621629D01*
X5011705Y4628259D01*
X5000000Y4630588D01*
D02*
G37*
G36*
X3716500Y2525588D02*
X2883500D01*
X2871795Y2523259D01*
X2861871Y2516629D01*
X2855241Y2506705D01*
X2852913Y2495000D01*
Y2017588D01*
X2760000D01*
X2748295Y2015259D01*
X2738371Y2008629D01*
X2731741Y1998705D01*
X2729413Y1987000D01*
Y1796000D01*
X2731741Y1784295D01*
X2738371Y1774371D01*
X2748295Y1767741D01*
X2760000Y1765412D01*
X3840000D01*
X3851706Y1767741D01*
X3861629Y1774371D01*
X3868259Y1784295D01*
X3870588Y1796000D01*
Y1987000D01*
X3868259Y1998705D01*
X3861629Y2008629D01*
X3851706Y2015259D01*
X3840000Y2017588D01*
X3747088D01*
Y2495000D01*
X3744760Y2506705D01*
X3738129Y2516629D01*
X3728206Y2523259D01*
X3716500Y2525588D01*
D02*
G37*
G36*
X11363297Y1450000D02*
X11336703D01*
X11311016Y1443117D01*
X11287985Y1429820D01*
X11269180Y1411015D01*
X11256827Y1389619D01*
X11250000Y1388741D01*
X11243173Y1389619D01*
X11230820Y1411015D01*
X11212015Y1429820D01*
X11188984Y1443117D01*
X11163297Y1450000D01*
X11136703D01*
X11111016Y1443117D01*
X11087985Y1429820D01*
X11069180Y1411015D01*
X11055883Y1387985D01*
X11049000Y1362297D01*
Y1335703D01*
X11055883Y1310016D01*
X11069180Y1286985D01*
X11087985Y1268180D01*
X11111016Y1254883D01*
X11136703Y1248000D01*
X11163297D01*
X11188984Y1254883D01*
X11212015Y1268180D01*
X11230820Y1286985D01*
X11243173Y1308381D01*
X11250000Y1309259D01*
X11256827Y1308381D01*
X11269180Y1286985D01*
X11287985Y1268180D01*
X11311016Y1254883D01*
X11336703Y1248000D01*
X11363297D01*
X11388985Y1254883D01*
X11412016Y1268180D01*
X11430820Y1286985D01*
X11444117Y1310016D01*
X11451000Y1335703D01*
Y1362297D01*
X11444117Y1387985D01*
X11430820Y1411015D01*
X11412016Y1429820D01*
X11388985Y1443117D01*
X11363297Y1450000D01*
D02*
G37*
G36*
X8135727Y3030588D02*
X6750000D01*
X6738295Y3028259D01*
X6728371Y3021629D01*
X6721741Y3011705D01*
X6719412Y3000000D01*
Y1500202D01*
X6368105Y1148895D01*
X6345611Y1121486D01*
X6328897Y1090216D01*
X6318605Y1056286D01*
X6315129Y1021000D01*
X6318605Y985714D01*
X6328897Y951784D01*
X6345611Y920514D01*
X6368105Y893105D01*
X6395513Y870611D01*
X6426784Y853897D01*
X6460714Y843605D01*
X6496000Y840129D01*
X6531286Y843605D01*
X6565216Y853897D01*
X6596486Y870611D01*
X6623895Y893105D01*
X6950203Y1219412D01*
X7481426D01*
X7484381Y1220000D01*
X7487394D01*
X7490177Y1221153D01*
X7493132Y1221741D01*
X7495637Y1223415D01*
X7498420Y1224567D01*
X7510385Y1232562D01*
X7542126Y1245709D01*
X7575822Y1252412D01*
X7610178D01*
X7643874Y1245709D01*
X7675615Y1232562D01*
X7687580Y1224567D01*
X7690364Y1223414D01*
X7692868Y1221741D01*
X7695823Y1221153D01*
X7698606Y1220000D01*
X7701619D01*
X7704574Y1219412D01*
X8094073D01*
X8096052Y1219806D01*
X8098065Y1219674D01*
X8101855Y1220960D01*
X8105779Y1221741D01*
X8107456Y1222861D01*
X8109367Y1223510D01*
X8112375Y1226148D01*
X8115702Y1228371D01*
X8116823Y1230049D01*
X8118340Y1231379D01*
X8120109Y1234967D01*
X8122332Y1238295D01*
X8122434Y1238802D01*
X8129322Y1249978D01*
X8136703Y1248000D01*
X8163297D01*
X8188984Y1254883D01*
X8212015Y1268180D01*
X8230820Y1286985D01*
X8243173Y1308381D01*
X8250000Y1309259D01*
X8256827Y1308381D01*
X8269180Y1286985D01*
X8287985Y1268180D01*
X8311016Y1254883D01*
X8336703Y1248000D01*
X8363297D01*
X8388984Y1254883D01*
X8412015Y1268180D01*
X8430820Y1286985D01*
X8444117Y1310016D01*
X8451000Y1335703D01*
Y1362297D01*
X8444117Y1387985D01*
X8430820Y1411015D01*
X8412015Y1429820D01*
X8388984Y1443117D01*
X8363297Y1450000D01*
X8336703D01*
X8311016Y1443117D01*
X8287985Y1429820D01*
X8269180Y1411015D01*
X8256827Y1389619D01*
X8250000Y1388741D01*
X8243173Y1389619D01*
X8230820Y1411015D01*
X8212015Y1429820D01*
X8188984Y1443117D01*
X8166211Y1449219D01*
X8166314Y1449738D01*
Y2520000D01*
X8380000D01*
Y2980000D01*
X8166314D01*
Y3000000D01*
X8163986Y3011705D01*
X8157356Y3021629D01*
X8147432Y3028259D01*
X8135727Y3030588D01*
D02*
G37*
G36*
X11000000D02*
X9250000D01*
X9238295Y3028259D01*
X9228371Y3021629D01*
X9221741Y3011705D01*
X9219412Y3000000D01*
Y2500000D01*
Y1500000D01*
X9221741Y1488295D01*
X9228371Y1478371D01*
X9238295Y1471741D01*
X9250000Y1469412D01*
X9319129D01*
Y1021000D01*
X9322605Y985714D01*
X9332897Y951784D01*
X9349611Y920514D01*
X9372105Y893105D01*
X9399514Y870611D01*
X9430784Y853897D01*
X9464714Y843605D01*
X9500000Y840129D01*
X9535286Y843605D01*
X9569216Y853897D01*
X9600487Y870611D01*
X9627895Y893105D01*
X9650389Y920514D01*
X9667103Y951784D01*
X9677395Y985714D01*
X9680871Y1021000D01*
Y1469412D01*
X10250000D01*
X10261705Y1471741D01*
X10271629Y1478371D01*
X10278259Y1488295D01*
X10280588Y1500000D01*
Y2469412D01*
X10719412D01*
Y1250000D01*
X10721741Y1238295D01*
X10728371Y1228371D01*
X10738295Y1221741D01*
X10750000Y1219412D01*
X11000000D01*
X11011705Y1221741D01*
X11021629Y1228371D01*
X11028259Y1238295D01*
X11030588Y1250000D01*
Y3000000D01*
X11028259Y3011705D01*
X11021629Y3021629D01*
X11011705Y3028259D01*
X11000000Y3030588D01*
D02*
G37*
G36*
X2500000Y2130588D02*
X200000D01*
X188295Y2128259D01*
X178371Y2121629D01*
X171741Y2111705D01*
X169412Y2100000D01*
Y1600000D01*
X171741Y1588295D01*
X178371Y1578371D01*
X188295Y1571741D01*
X200000Y1569412D01*
X1169412D01*
Y400000D01*
X1171741Y388295D01*
X1178371Y378371D01*
X1188295Y371741D01*
X1200000Y369412D01*
X1800000D01*
X1811705Y371741D01*
X1821629Y378371D01*
X1828259Y388295D01*
X1830588Y400000D01*
Y1269412D01*
X2169412D01*
Y400000D01*
X2171741Y388295D01*
X2178371Y378371D01*
X2188295Y371741D01*
X2200000Y369412D01*
X2800000D01*
X2811705Y371741D01*
X2821629Y378371D01*
X2828259Y388295D01*
X2830588Y400000D01*
Y1300000D01*
X2828259Y1311706D01*
X2821629Y1321629D01*
X2821628Y1321629D01*
X2530588Y1612670D01*
Y1699999D01*
X2530588Y1700000D01*
X2530588Y1700001D01*
Y2100000D01*
X2528259Y2111705D01*
X2521629Y2121629D01*
X2511705Y2128259D01*
X2500000Y2130588D01*
D02*
G37*
%LPD*%
G36*
X6600000Y6000000D02*
Y3800000D01*
X6000000D01*
Y6000000D01*
X3690650D01*
Y5422431D01*
X2890650Y5422432D01*
Y6622432D01*
X2900000D01*
Y7100000D01*
X6600000D01*
Y6000000D01*
D02*
G37*
G36*
X9000000Y4250000D02*
X10750000D01*
Y3250000D01*
X7500000D01*
Y4250000D01*
X8250000D01*
Y6000000D01*
X9000000D01*
Y4250000D01*
D02*
G37*
G36*
X2600000Y2800000D02*
X2400000D01*
Y3300000D01*
X2600000D01*
Y2800000D01*
D02*
G37*
G36*
X3000000Y3400000D02*
X2300000D01*
Y2600000D01*
X1700000D01*
Y3400000D01*
Y4700000D01*
X3000000D01*
Y3400000D01*
D02*
G37*
G36*
X5000000Y3500000D02*
X3400000D01*
Y4600000D01*
X5000000D01*
Y3500000D01*
D02*
G37*
G36*
X6400000Y2800000D02*
X6000000D01*
X6000000Y1400000D01*
X5200000D01*
Y1200000D01*
Y300000D01*
X4600000D01*
Y1200000D01*
X4100000D01*
Y300000D01*
X3500000D01*
Y1200000D01*
X3500000Y1700000D01*
X4100000Y1700000D01*
X4300000Y1900000D01*
X5500000D01*
X5500000Y2800000D01*
X3600000D01*
Y3400000D01*
X6400000D01*
Y2800000D01*
D02*
G37*
G36*
X3716500Y1987000D02*
X3840000D01*
Y1796000D01*
X2760000D01*
Y1987000D01*
X2883500D01*
Y2495000D01*
X3716500D01*
Y1987000D01*
D02*
G37*
G36*
X8135727Y1449738D02*
X8111016Y1443117D01*
X8087985Y1429820D01*
X8069180Y1411015D01*
X8055883Y1387985D01*
X8049000Y1362297D01*
Y1335703D01*
X8055883Y1310016D01*
X8069180Y1286985D01*
X8087985Y1268180D01*
X8097476Y1262700D01*
X8094073Y1250000D01*
X7704574D01*
X7690104Y1259668D01*
X7652796Y1275122D01*
X7613191Y1283000D01*
X7572809D01*
X7533204Y1275122D01*
X7495896Y1259668D01*
X7481426Y1250000D01*
X6750000D01*
Y3000000D01*
X8135727D01*
Y1449738D01*
D02*
G37*
G36*
X11000000Y2500000D02*
Y1250000D01*
X10750000D01*
Y2500000D01*
X10250000D01*
Y1500000D01*
X9250000D01*
Y2500000D01*
Y3000000D01*
X11000000D01*
Y2500000D01*
D02*
G37*
G36*
X2500000Y1600000D02*
X2800000Y1300000D01*
Y400000D01*
X2200000D01*
Y1300000D01*
X1800000D01*
Y400000D01*
X1200000D01*
Y1600000D01*
X200000D01*
Y2100000D01*
X2500000D01*
Y1600000D01*
D02*
G37*
D10*
X10250000Y3750000D02*
D03*
Y2750000D02*
D03*
X6000000Y3000000D02*
D03*
Y4000000D02*
D03*
X1600000Y2900000D02*
D03*
Y1900000D02*
D03*
X8000000Y2750000D02*
D03*
Y3750000D02*
D03*
D11*
X6507139Y5227182D02*
D03*
X6807139D02*
D03*
X1500000Y3500000D02*
D03*
X1800000D02*
D03*
D12*
X2500000Y3450000D02*
D03*
Y3150000D02*
D03*
X7750000Y4100000D02*
D03*
Y4400000D02*
D03*
X2500000Y2600000D02*
D03*
Y2900000D02*
D03*
D13*
X3800000Y4200000D02*
D03*
X2800000D02*
D03*
D14*
X3300000Y2145500D02*
D03*
D15*
X3640000Y3213000D02*
D03*
X3470000D02*
D03*
X3300000D02*
D03*
X3130000D02*
D03*
X2960000D02*
D03*
D16*
X4600000Y4170000D02*
D03*
Y4830000D02*
D03*
D17*
X6496000Y1021000D02*
X7000000Y1525000D01*
Y1750000D01*
X9500000Y1021000D02*
Y1750000D01*
X6854000Y11000000D02*
Y11346000D01*
D18*
X2500000Y2900000D02*
X3071422D01*
X3130000Y2958579D02*
Y3213000D01*
X3071422Y2900000D02*
X3130000Y2958579D01*
X3470000Y3770000D02*
X3500000Y3800000D01*
X3470000Y3213000D02*
Y3770000D01*
D19*
X10125000Y2000000D02*
D03*
X8000000D02*
D03*
X5875000Y1750000D02*
D03*
D20*
X10375000Y2000000D02*
D03*
X8250000D02*
D03*
X6125000Y1750000D02*
D03*
X500000Y2250000D02*
D03*
D21*
X10008000Y1021000D02*
D03*
X9500000D02*
D03*
X5408000D02*
D03*
X4900000D02*
D03*
X4308000D02*
D03*
X3800000D02*
D03*
X3100000D02*
D03*
X2592000D02*
D03*
X1954000D02*
D03*
X1446000D02*
D03*
X7004000D02*
D03*
X6496000D02*
D03*
X6346000Y11000000D02*
D03*
X6854000D02*
D03*
D22*
X6250000Y4750000D02*
D03*
X8750000D02*
D03*
X3600000Y11300000D02*
D03*
X9050000D02*
D03*
X1950000Y4300000D02*
D03*
D23*
X5750000Y4750000D02*
D03*
X9250000D02*
D03*
X4100000Y11300000D02*
D03*
X9550000D02*
D03*
X1450000Y4300000D02*
D03*
X4600000Y2450000D02*
D03*
X10878000Y5728000D02*
D03*
X9862000D02*
D03*
X8846000D02*
D03*
X10624000Y10300000D02*
D03*
X9608000D02*
D03*
X4084000D02*
D03*
X5100000D02*
D03*
X3322000Y5728000D02*
D03*
X4338000D02*
D03*
X5354000D02*
D03*
D24*
X10593000Y1078000D02*
D03*
X11907000D02*
D03*
X7593000D02*
D03*
X8907000D02*
D03*
D25*
X10900000Y1349000D02*
D03*
X7900000D02*
D03*
D26*
X11150000D02*
D03*
X11350000D02*
D03*
X11600000D02*
D03*
X8150000D02*
D03*
X8350000D02*
D03*
X8600000D02*
D03*
D27*
X600000Y600000D02*
D03*
Y11400000D02*
D03*
X12700000Y600000D02*
D03*
Y11400000D02*
D03*
D28*
X500000Y2000000D02*
D03*
D29*
X4600000Y2950000D02*
D03*
D30*
X9100000Y10300000D02*
D03*
X3576000D02*
D03*
D31*
X3192596Y3986251D02*
D03*
X3188476Y3560543D02*
D03*
X5000000Y2000000D02*
D03*
X4500000D02*
D03*
X4000000D02*
D03*
X7500000Y500000D02*
D03*
X8000000D02*
D03*
X5500000D02*
D03*
X500000Y5000000D02*
D03*
X1000000D02*
D03*
Y3500000D02*
D03*
Y4000000D02*
D03*
Y4500000D02*
D03*
X4500000Y5250000D02*
D03*
X4000000D02*
D03*
X1750000Y2250000D02*
D03*
X2500000D02*
D03*
X750000Y2750000D02*
D03*
X250000D02*
D03*
X2500000Y250000D02*
D03*
X3000000D02*
D03*
X1500000D02*
D03*
X2000000D02*
D03*
Y500000D02*
D03*
X4250000D02*
D03*
X3000000D02*
D03*
Y1500000D02*
D03*
Y2000000D02*
D03*
X3500000D02*
D03*
Y2250000D02*
D03*
X3000000D02*
D03*
X9250000Y6250000D02*
D03*
Y5750000D02*
D03*
X10250000D02*
D03*
Y6250000D02*
D03*
X9750000D02*
D03*
X5250000Y2500000D02*
D03*
X7000000Y500000D02*
D03*
X10000000Y5000000D02*
D03*
X500000Y3500000D02*
D03*
X10000000Y4500000D02*
D03*
X500000Y4000000D02*
D03*
X12000000Y1750000D02*
D03*
X11500000D02*
D03*
X250000Y3000000D02*
D03*
X8750000Y2250000D02*
D03*
X750000Y3000000D02*
D03*
X9500000Y500000D02*
D03*
X8750000Y2000000D02*
D03*
X5250000Y4750000D02*
D03*
X10000000Y750000D02*
D03*
X6250000Y2500000D02*
D03*
Y2250000D02*
D03*
X10000000Y500000D02*
D03*
X5250000Y2250000D02*
D03*
Y4250000D02*
D03*
Y5250000D02*
D03*
X11250000Y500000D02*
D03*
X8500000Y1000000D02*
D03*
X10250000Y1250000D02*
D03*
X10500000Y1500000D02*
D03*
X8500000Y500000D02*
D03*
X8750000Y1750000D02*
D03*
X6500000Y500000D02*
D03*
X10750000D02*
D03*
X9000000D02*
D03*
X11750000D02*
D03*
X500000Y4500000D02*
D03*
%TF.MD5,780aa7e808827aa875186353a77fb37b*%
M02*
