%TF.GenerationSoftware,Altium Limited,Altium Designer,22.4.2 (48)*%
G04 Layer_Color=8421504*
%FSLAX45Y45*%
%MOMM*%
%TF.SameCoordinates,33709DFB-A149-439E-BA6C-A4EA3245395A*%
%TF.FilePolarity,Positive*%
%TF.FileFunction,Paste,Top*%
%TF.Part,Single*%
G01*
G75*
%TA.AperFunction,SMDPad,CuDef*%
%ADD10R,7.00000X4.00000*%
%ADD11R,1.00000X1.60000*%
%ADD12R,1.60000X1.00000*%
%ADD13R,4.00000X7.00000*%
%ADD14C,6.29100*%
%ADD15R,1.07000X2.16000*%
%ADD16R,3.30000X2.40000*%
G36*
X3716500Y1987000D02*
X3840000D01*
Y1796000D01*
X2760000D01*
Y1987000D01*
X2883500D01*
Y2495000D01*
X3716500D01*
Y1987000D01*
D02*
G37*
D10*
X10250000Y3750000D02*
D03*
Y2750000D02*
D03*
X6000000Y3000000D02*
D03*
Y4000000D02*
D03*
X1600000Y2900000D02*
D03*
Y1900000D02*
D03*
X8000000Y2750000D02*
D03*
Y3750000D02*
D03*
D11*
X6507139Y5227182D02*
D03*
X6807139D02*
D03*
X1500000Y3500000D02*
D03*
X1800000D02*
D03*
D12*
X2500000Y3450000D02*
D03*
Y3150000D02*
D03*
X7750000Y4100000D02*
D03*
Y4400000D02*
D03*
X2500000Y2600000D02*
D03*
Y2900000D02*
D03*
D13*
X3800000Y4200000D02*
D03*
X2800000D02*
D03*
D14*
X3300000Y2145500D02*
D03*
D15*
X3640000Y3213000D02*
D03*
X3470000D02*
D03*
X3300000D02*
D03*
X3130000D02*
D03*
X2960000D02*
D03*
D16*
X4600000Y4170000D02*
D03*
Y4830000D02*
D03*
%TF.MD5,2d45e56bdec560cdab0c909e3d4be8f0*%
M02*
