M48
;Layer_Color=9474304
;FILE_FORMAT=4:4
METRIC,LZ
;TYPE=PLATED
T1F00S00C0.3000
T2F00S00C0.8000
T3F00S00C0.9200
T4F00S00C1.0000
T5F00S00C1.2000
T6F00S00C1.5000
T7F00S00C2.3000
T8F00S00C4.2000
%
T01
X002Y0002
Y0004
Y0007
X0029Y0006
Y0002
X0033
Y0006
Y0014
X0029
X003Y002
X0032
X0034
X0036
Y0023
X0034
X0032
X003
X0026Y0024
X0024
X0027Y0032
X0031Y0037
X0033
Y0029
X0007Y0026
X0005
X0003
X001Y0035
Y0039
X0042Y002
X0046
X0051
X0058Y0013
Y001
Y0007
X0054
X0045
X0042
Y0003
X0045
X0069Y0007
X0072
Y0014
X0069
X0065Y0021
Y0023
Y0026
X0081Y0016
Y0014
X0094Y0016
X0098
X0102
X0112
X0116
X0115Y001
X0112
X011
X0096Y0011
X012Y0016
X0104Y0042
X01
X0095Y0044
Y0047
Y005
Y0053
Y0055
Y0058
Y0061
X0099
X0103
Y0058
Y0055
X0057Y0052
X0055
Y0049
Y0047
Y0044
X0049Y0051
X0046
X0044
X0047Y0057
Y0059
X004
Y0057
X001Y0047
Y0043
T02
X0005Y002
Y00225
X0059Y0023
X00615
X0103Y003475
Y003725
X0091Y005
X00885
X0061Y0047
X00585
T03
X00895Y001319
X0092
X0094
X00965
X01085
X0111
X0113
X01155
T04
X0046Y00245
Y00295
X00195Y0043
X00145
X0036Y0113
X0041
X00905
X00955
T05
X008846Y005728
X009862
X010878
X005354
X004338
X003322
X003576Y0103
X004084
X0051
X0091
X009608
X010624
T06
X001446Y001021
X001954
X002592
X0031
X0038
X004308
X0049
X005408
X006346
X006854
X007546
X008054
X006854Y011
X006346
T07
X008643Y001048
X009957
X010543
X011857
T08
X0006Y0006
X0127
X0006Y0114
X0127
M30
