M48
;Layer_Color=9474304
;FILE_FORMAT=4:4
METRIC,LZ
;TYPE=PLATED
T1F00S00C0.7000
T2F00S00C0.8000
T3F00S00C0.9200
T4F00S00C1.0000
T5F00S00C1.2000
T6F00S00C1.5000
T7F00S00C2.3000
T8F00S00C4.2000
%
T01
X0015Y00025
X002
Y0005
X0025Y00025
X003
Y0005
Y0015
Y002
Y00225
X0025
X00175
X00075Y00275
Y003
X00025
Y00275
X0005Y0035
X001
X00318848Y00356054
X0035Y00225
Y002
X004
X0045
X005
X00525Y00225
Y0025
X00625
Y00225
X0065Y0005
X007
X0075
X0055
X00425
X008
X0085
Y001
X00875Y00175
Y002
Y00225
X009Y0005
X0095
X01
Y00075
X01025Y00125
X0105Y0015
X0115Y00175
X01125Y0005
X01075
X01175
X012Y00175
X01Y0045
Y005
X01025Y00575
Y00625
X00975
X00925
Y00575
X00525Y00525
Y00475
Y00425
X0045Y00525
X004
X0031926Y00398625
X001Y004
Y0045
Y005
X0005
Y0045
Y004
T02
X0005Y002
Y00225
X005875Y00175
X006125
X008Y002
X00825
X010125
X010375
T03
X0079Y001349
X00815
X00835
X0086
X0109
X01115
X01135
X0116
T04
X0046Y00245
Y00295
X00875Y00475
X00925
X00625
X00575
X00195Y0043
X00145
X0036Y0113
X0041
X00905
X00955
T05
X008846Y005728
X009862
X010878
X005354
X004338
X003322
X003576Y0103
X004084
X0051
X0091
X009608
X010624
T06
X001446Y001021
X001954
X002592
X0031
X0038
X004308
X0049
X005408
X006496
X007004
X0095
X010008
X006854Y011
X006346
T07
X007593Y001078
X008907
X010593
X011907
T08
X0006Y0006
X0127
X0006Y0114
X0127
M30
